<svg width="0" height="0" class="hidden">
  <symbol xmlns="http://www.w3.org/2000/svg" viewBox="0 0 167.657 167.657" id="facebook-circular-logo">
    <path d="M83.829.349C37.532.349 0 37.881 0 84.178c0 41.523 30.222 75.911 69.848 82.57v-65.081H49.626v-23.42h20.222V60.978c0-20.037 12.238-30.956 30.115-30.956 8.562 0 15.92.638 18.056.919v20.944l-12.399.006c-9.72 0-11.594 4.618-11.594 11.397v14.947h23.193l-3.025 23.42H94.026v65.653c41.476-5.048 73.631-40.312 73.631-83.154 0-46.273-37.532-83.805-83.828-83.805z"></path>
  </symbol>
  <symbol xmlns="http://www.w3.org/2000/svg" viewBox="0 0 89.758 89.758" id="instagram">
    <g>
      <path d="M58.255 23.88H31.503c-4.27 0-7.744 3.474-7.744 7.744v26.752c0 4.27 3.474 7.745 7.744 7.745h26.752c4.27 0 7.745-3.474 7.745-7.745V31.624c0-4.27-3.474-7.744-7.745-7.744zM44.879 58.906c-7.667 0-13.905-6.238-13.905-13.906 0-7.667 6.238-13.905 13.905-13.905 7.668 0 13.906 6.238 13.906 13.905 0 7.667-6.239 13.906-13.906 13.906zM59.232 33.97a3.294 3.294 0 01-3.291-3.29 3.294 3.294 0 013.291-3.29 3.294 3.294 0 013.29 3.29 3.294 3.294 0 01-3.29 3.29z"></path>
      <path d="M44.879 36.971c-4.426 0-8.03 3.602-8.03 8.028 0 4.428 3.604 8.031 8.03 8.031 4.428 0 8.029-3.603 8.029-8.031 0-4.425-3.602-8.028-8.029-8.028z"></path>
      <path d="M44.879 0C20.094 0 0 20.094 0 44.879c0 24.785 20.094 44.879 44.879 44.879 24.785 0 44.879-20.094 44.879-44.879C89.758 20.094 69.664 0 44.879 0zm26.996 58.376c0 7.511-6.109 13.62-13.62 13.62H31.503c-7.51 0-13.62-6.109-13.62-13.62V31.624c0-7.51 6.11-13.62 13.62-13.62h26.752c7.511 0 13.62 6.11 13.62 13.62v26.752z"></path>
    </g>
  </symbol>
  <symbol xmlns="http://www.w3.org/2000/svg" viewBox="0 0 512 512" id="twitter">
    <path d="M256 0C114.637 0 0 114.637 0 256s114.637 256 256 256 256-114.637 256-256S397.363 0 256 0zm116.887 199.602c.113 2.52.168 5.05.168 7.593 0 77.645-59.102 167.18-167.184 167.184h.004-.004c-33.184 0-64.062-9.727-90.066-26.395 4.597.543 9.277.813 14.015.813 27.532 0 52.868-9.39 72.98-25.152-25.722-.477-47.41-17.465-54.894-40.813a58.481 58.481 0 0011.043 1.063 58.8 58.8 0 0015.496-2.07c-26.886-5.384-47.14-29.145-47.14-57.598 0-.266 0-.504.007-.75a58.354 58.354 0 0026.614 7.347c-15.778-10.527-26.149-28.523-26.149-48.91a58.597 58.597 0 017.957-29.535c28.977 35.555 72.282 58.937 121.118 61.394a58.708 58.708 0 01-1.528-13.398c0-32.437 26.317-58.754 58.766-58.754 16.902 0 32.168 7.145 42.89 18.567a117.855 117.855 0 0037.313-14.262c-4.395 13.715-13.707 25.222-25.84 32.5 11.887-1.422 23.215-4.574 33.742-9.254a119.412 119.412 0 01-29.308 30.43zm0 0"></path>
  </symbol>
  <symbol xmlns="http://www.w3.org/2000/svg" viewBox="0 0 512 512" id="whatsapp">
    <path d="M256 0C114.637 0 0 114.637 0 256s114.637 256 256 256 256-114.637 256-256S397.363 0 256 0zm5.426 405.05c-.004 0 .004 0 0 0h-.063c-25.644-.01-50.843-6.44-73.222-18.644l-81.223 21.301 21.738-79.375c-13.41-23.227-20.465-49.578-20.453-76.574.035-84.453 68.77-153.16 153.223-153.16 40.984.015 79.457 15.968 108.383 44.918 28.93 28.953 44.851 67.437 44.836 108.363-.036 84.457-68.778 153.172-153.22 153.172zm0 0"></path>
    <path d="M261.477 124.469c-70.247 0-127.375 57.105-127.407 127.3-.007 24.055 6.727 47.481 19.473 67.75l3.027 4.817-12.867 46.98 48.2-12.64 4.652 2.758c19.55 11.601 41.965 17.738 64.816 17.746h.05c70.192 0 127.321-57.11 127.352-127.309.012-34.02-13.222-66.004-37.265-90.066-24.043-24.063-56.02-37.325-90.031-37.336zm74.906 182.035c-3.192 8.937-18.485 17.098-25.84 18.2-6.598.983-14.941 1.394-24.113-1.517-5.563-1.765-12.692-4.12-21.828-8.062-38.403-16.578-63.485-55.234-65.399-57.79-1.914-2.554-15.633-20.753-15.633-39.593 0-18.836 9.89-28.097 13.399-31.926 3.511-3.832 7.66-4.789 10.21-4.789 2.551 0 5.106.024 7.337.133 2.351.117 5.507-.894 8.613 6.57 3.191 7.665 10.848 26.5 11.805 28.415.957 1.917 1.593 4.152.32 6.707-1.277 2.554-5.52 8.066-9.57 13.09-1.7 2.105-3.914 3.98-1.68 7.812 2.23 3.828 9.918 16.363 21.297 26.512 14.625 13.039 26.96 17.078 30.789 18.996 3.824 1.914 6.058 1.593 8.293-.957 2.23-2.555 9.57-11.176 12.12-15.008 2.552-3.832 5.106-3.192 8.614-1.914 3.512 1.273 22.332 10.535 26.16 12.449 3.828 1.918 6.38 2.875 7.336 4.473.961 1.597.961 9.258-2.23 18.199zm0 0"></path>
  </symbol>
</svg>